<svg id="Слой_1" data-name="Слой 1" xmlns="http://www.w3.org/2000/svg" viewBox="0 0 571.57 246.15"><defs><style>.cls-1{opacity:0.34;}.cls-2{stroke:#000;}.cls-2,.cls-3,.cls-7,.cls-8{stroke-miterlimit:10;stroke-width:2px;}.cls-3,.cls-8{font-size:115.88px;font-family:WorkSans-Regular, Work Sans;letter-spacing:0.02em;}.cls-3,.cls-7,.cls-8{stroke:#020202;}.cls-4{letter-spacing:0em;}.cls-5{letter-spacing:0em;}.cls-6{letter-spacing:0.02em;}.cls-7,.cls-8{fill:#548139;}.cls-9{letter-spacing:0.01em;}.cls-10{letter-spacing:0em;}.cls-11{letter-spacing:0.08em;}.cls-12{letter-spacing:0em;}.cls-13{letter-spacing:0.02em;}</style></defs><title>Logo</title><g id="Тень" class="cls-1"><path class="cls-2" d="M261.08,100.93a83,83,0,1,0,83,83A83,83,0,0,0,261.08,100.93Zm-14.14,69.38c-4.61-2.91-5.9-7.41-2.05-10.82a22.28,22.28,0,0,1,2.09-1.63Zm19.79,5.89c-3.69-1.06-7.32-1.95-10.49-2.75l.06-19.3a33.25,33.25,0,0,1,10.49,0Zm0,10L266.64,207a44,44,0,0,1-10.49-.57l.07-22.42C259.88,184.69,263.51,185.33,266.71,186.17Zm-.08,30.33,0,11.5-1.84.45a14.87,14.87,0,0,1-7.29-.08l-1.37-.37,0-11.47A47.27,47.27,0,0,0,266.63,216.5Zm9.79,40.91c-.74-4.55-1.36-11.18.17-16,2.35-7.42,9.74-9.18,13.53-12.09,4.22-3.23,9.65-7,12.66-11.33a26.5,26.5,0,0,0,2.75-6.68,15,15,0,0,0,.41-3.46v-46.1c0-4.86-4.13-9.17-10.2-10.64l-1.86-.45v55a12.7,12.7,0,0,1-3.07,8.15c-.78.94-1.76,2.06-3,3.35a27.58,27.58,0,0,1-11.17,7.1l0-10.66a33.86,33.86,0,0,0,5.59-3,11.35,11.35,0,0,0,1.48-1.19,19.89,19.89,0,0,0,5.13-7.9l.27-.74a16,16,0,0,0,.93-7.19,13.06,13.06,0,0,0-4.25-8.48,32.83,32.83,0,0,0-9-5.42l.07-22.89a61.37,61.37,0,0,1,10,4.62v-12a63.93,63.93,0,0,0-10-3.35v-3.59c0-4.06-.49-7.86-4.48-9.72l-5.56-2.58,0,14.1a51.11,51.11,0,0,0-10.49,0l0-14.13-5.28,2.56c-3.86,1.88-4.05,5.13-4.07,9.1v4.72a31.66,31.66,0,0,0-6.78,3.6s-14.31,11.39-5.26,24.1c2.64,3.71,7,5.94,11.93,7.49l-.06,22.45a76.49,76.49,0,0,1-13.7-5.81v11.92a80.34,80.34,0,0,0,13.66,4.63l0,9.49s-9.57-5-13.77-8.16l-.12-.1a11.38,11.38,0,0,1-4.6-9V151.06l-1.87.44c-6.07,1.48-10.19,5.79-10.19,10.65v43.68c0,4.06,1.46,10.83,4.3,14.15.95,1.13,3.16,4.41,10.81,9.05s7.38,3.48,12.18,9.39c3,3.64,3.33,13.24,3.24,19.18a75,75,0,1,1,29.66-.19Zm.3-53.38,0-13.38c2.27,1.68,4,3.85,3.84,6.57A8.18,8.18,0,0,1,276.72,204Z" transform="translate(-11.43 -77.73)"/><text class="cls-3" transform="translate(6 99.18)">PR<tspan x="0" y="86.91" xml:space="preserve">  </tspan><tspan class="cls-4" x="83.43" y="86.91">F</tspan><tspan x="153.66" y="86.91" xml:space="preserve">    R</tspan><tspan class="cls-5" x="399.78" y="86.91">K</tspan><tspan class="cls-6" x="475.57" y="86.91">S</tspan></text></g><path class="cls-7" d="M258.08,92A89.93,89.93,0,1,0,348,181.93,89.93,89.93,0,0,0,258.08,92Zm-15.32,75.17c-5-3.15-6.39-8-2.22-11.71a20.39,20.39,0,0,1,2.26-1.77Zm21.44,6.39c-4-1.15-7.93-2.12-11.36-3l.06-20.9a35.83,35.83,0,0,1,11.37,0Zm0,10.8-.07,22.51a47.37,47.37,0,0,1-11.37-.62l.07-24.29C256.78,182.76,260.71,183.45,264.18,184.36Zm-.09,32.86,0,12.45-2,.49a16.08,16.08,0,0,1-7.89-.08l-1.48-.41,0-12.42A51,51,0,0,0,264.09,217.22Zm10.61,44.32c-.8-4.93-1.47-12.11.18-17.33,2.55-8,10.56-9.94,14.67-13.1,4.57-3.5,10.44-7.61,13.71-12.28a28.84,28.84,0,0,0,3-7.24,15.76,15.76,0,0,0,.44-3.75V157.9c0-5.27-4.47-9.94-11.05-11.53l-2-.49v59.58a13.78,13.78,0,0,1-3.32,8.83c-.85,1-1.91,2.23-3.23,3.64a29.93,29.93,0,0,1-12.1,7.69l0-11.55a37.63,37.63,0,0,0,6.05-3.24,13.3,13.3,0,0,0,1.61-1.3,21.65,21.65,0,0,0,5.55-8.55l.29-.81a17.38,17.38,0,0,0,1-7.79,14.19,14.19,0,0,0-4.61-9.18,35.68,35.68,0,0,0-9.81-5.88l.08-24.79a66,66,0,0,1,10.83,5v-13a69,69,0,0,0-10.79-3.62V137c0-4.4-.53-8.52-4.85-10.53l-6-2.8,0,15.27a55.44,55.44,0,0,0-11.37,0l0-15.31-5.71,2.77c-4.19,2-4.39,5.56-4.41,9.86l0,5.12a34.42,34.42,0,0,0-7.34,3.9s-15.5,12.34-5.7,26.11c2.86,4,7.58,6.43,12.93,8.12l-.07,24.32a82.24,82.24,0,0,1-14.85-6.3v12.91a87.57,87.57,0,0,0,14.81,5l0,10.28s-10.37-5.38-14.91-8.85l-.13-.1a12.35,12.35,0,0,1-5-9.75V146.32l-2,.48c-6.58,1.6-11.05,6.26-11.05,11.54v47.32c0,4.4,1.59,11.73,4.66,15.33,1,1.22,3.43,4.78,11.72,9.8s8,3.77,13.19,10.17c3.22,3.95,3.61,14.35,3.51,20.79a81.33,81.33,0,0,1-65.77-82c1.1-42.15,34.8-76.82,76.9-79a81.32,81.32,0,0,1,21,160.81Zm.32-57.83.05-14.5c2.46,1.82,4.31,4.18,4.16,7.11A8.9,8.9,0,0,1,275,203.71Z" transform="translate(-11.43 -77.73)"/><text class="cls-8" transform="translate(2 97.18)">PR<tspan x="0" y="86.91"> </tspan><tspan class="cls-9" x="41.72" y="86.91"> </tspan><tspan class="cls-10" x="82.74" y="86.91">F</tspan><tspan class="cls-6" x="153.08" y="86.91" xml:space="preserve">   </tspan><tspan class="cls-11" x="278.22" y="86.91"> </tspan><tspan class="cls-6" x="327.24" y="86.91">R</tspan><tspan class="cls-12" x="406.5" y="86.91">K</tspan><tspan class="cls-13" x="482.29" y="86.91">S</tspan></text></svg>